<?xml version="1.0" encoding="UTF-8"?>
<svg width="1024" height="1024" viewBox="0 0 1024 1024" fill="none" xmlns="http://www.w3.org/2000/svg">
  <rect width="1024" height="1024" fill="white"/>
  <path d="M512 924C741.235 924 927 738.235 927 509C927 279.765 741.235 94 512 94C282.765 94 97 279.765 97 509C97 738.235 282.765 924 512 924Z" fill="#40E0D0" fill-opacity="0.1"/>
  <path d="M512 824C686.037 824 827 683.037 827 509C827 334.963 686.037 194 512 194C337.963 194 197 334.963 197 509C197 683.037 337.963 824 512 824Z" fill="#40E0D0" fill-opacity="0.2"/>
  <path d="M422 509C422 605.038 499.962 683 596 683C692.038 683 770 605.038 770 509C770 412.962 692.038 335 596 335" stroke="#40E0D0" stroke-width="40" stroke-linecap="round"/>
  <path d="M602 509C602 412.962 524.038 335 428 335C331.962 335 254 412.962 254 509C254 605.038 331.962 683 428 683" stroke="#7FFFD4" stroke-width="40" stroke-linecap="round"/>
</svg>
